<svg width="186" height="28" viewBox="0 0 186 28" fill="none" xmlns="http://www.w3.org/2000/svg">
<path d="M8.54 5.065C9.84667 4.13167 11.305 3.36167 12.915 2.755C14.525 2.125 16.17 1.65833 17.85 1.355C19.5533 1.05167 21.245 0.923332 22.925 0.969998C24.605 1.01667 26.1567 1.25 27.58 1.67C29.0267 2.06667 30.2983 2.65 31.395 3.42C32.515 4.19 33.3667 5.14667 33.95 6.29C34.51 7.45667 34.755 8.64667 34.685 9.86C34.6383 11.0733 34.37 12.2867 33.88 13.5C33.39 14.69 32.7133 15.845 31.85 16.965C30.9867 18.085 30.0183 19.1233 28.945 20.08C27.2883 21.55 25.375 22.88 23.205 24.07C21.0583 25.2833 18.795 26.205 16.415 26.835C14.035 27.465 11.6083 27.745 9.135 27.675C6.66167 27.6283 4.29333 27.08 2.03 26.03C1.54 25.7967 1.13167 25.5633 0.805 25.33C0.478333 25.0967 0.28 24.91 0.21 24.77C0.163333 24.63 0.256667 24.56 0.49 24.56C0.746667 24.5833 1.21333 24.7233 1.89 24.98C3.43 25.61 5.06333 25.925 6.79 25.925C8.54 25.9483 10.255 25.7733 11.935 25.4C11.8883 24.6067 11.9583 23.6617 12.145 22.565C12.355 21.445 12.635 20.29 12.985 19.1C13.335 17.8867 13.7433 16.685 14.21 15.495C14.7 14.305 15.19 13.2317 15.68 12.275C16.1933 11.295 16.6833 10.49 17.15 9.86C17.64 9.20667 18.0833 8.82167 18.48 8.705C18.8533 8.61167 19.2383 8.565 19.635 8.565C20.0317 8.565 20.37 8.61167 20.65 8.705C20.9533 8.775 21.1633 8.89167 21.28 9.055C21.42 9.195 21.4083 9.34667 21.245 9.51C20.8017 10.0233 20.2417 10.8283 19.565 11.925C18.8883 13.0217 18.2117 14.2817 17.535 15.705C16.8583 17.105 16.2283 18.5983 15.645 20.185C15.0617 21.7483 14.6533 23.2767 14.42 24.77C16.1467 24.3267 17.8967 23.65 19.67 22.74C21.4667 21.83 23.1583 20.7917 24.745 19.625C26.3317 18.435 27.755 17.1633 29.015 15.81C30.2983 14.4567 31.2783 13.115 31.955 11.785C32.655 10.455 33.005 9.195 33.005 8.005C33.005 6.79167 32.5267 5.75333 31.57 4.89C30.7533 4.12 29.7033 3.595 28.42 3.315C27.16 3.01167 25.7717 2.90667 24.255 3C22.7617 3.07 21.1983 3.315 19.565 3.735C17.9317 4.13167 16.345 4.65667 14.805 5.31C13.265 5.94 11.8183 6.675 10.465 7.515C9.11167 8.33167 7.95667 9.195 7 10.105C6.76667 10.315 6.59167 10.2683 6.475 9.965C6.35833 9.63833 6.335 9.195 6.405 8.635C6.475 8.075 6.67333 7.46833 7 6.815C7.35 6.13833 7.86333 5.555 8.54 5.065ZM36.9176 14.83C37.011 14.9233 37.151 14.97 37.3376 14.97C37.5243 14.9467 37.711 14.9 37.8976 14.83C38.1076 14.76 38.2943 14.6783 38.4576 14.585C38.6443 14.4917 38.7726 14.41 38.8426 14.34C38.8893 14.2467 39.006 14.2 39.1926 14.2C39.4026 14.2 39.6126 14.2467 39.8226 14.34C40.0326 14.41 40.2193 14.5267 40.3826 14.69C40.5693 14.83 40.686 15.005 40.7326 15.215C40.756 15.4017 40.6626 15.67 40.4526 16.02C40.266 16.37 40.056 16.72 39.8226 17.07C39.6126 17.3967 39.4493 17.6883 39.3326 17.945C39.216 18.2017 39.251 18.33 39.4376 18.33C39.6243 18.33 39.8926 18.2017 40.2426 17.945C40.616 17.665 41.001 17.35 41.3976 17C41.7943 16.65 42.1676 16.3 42.5176 15.95C42.8676 15.6 43.1243 15.3433 43.2876 15.18C43.6376 14.8767 43.9293 14.76 44.1626 14.83C44.4193 14.9 44.396 15.145 44.0926 15.565C43.9526 15.775 43.731 16.0783 43.4276 16.475C43.1476 16.8717 42.821 17.2917 42.4476 17.735C42.0743 18.1783 41.6776 18.5983 41.2576 18.995C40.8376 19.3917 40.4176 19.6717 39.9976 19.835C39.811 19.905 39.5426 19.905 39.1926 19.835C38.866 19.765 38.5276 19.6483 38.1776 19.485C37.8276 19.3217 37.5243 19.1117 37.2676 18.855C37.011 18.575 36.8943 18.26 36.9176 17.91C36.9176 17.6067 36.9876 17.2917 37.1276 16.965C37.291 16.615 37.466 16.2417 37.6526 15.845C37.2326 15.9617 36.801 15.9733 36.3576 15.88C35.9143 15.7867 35.5526 15.6233 35.2726 15.39C34.9926 15.1567 34.8293 14.8767 34.7826 14.55C34.736 14.2 34.8876 13.8267 35.2376 13.43C35.611 12.9867 35.9726 12.7417 36.3226 12.695C36.696 12.6483 36.9876 12.73 37.1976 12.94C37.4076 13.1267 37.501 13.4067 37.4776 13.78C37.4776 14.13 37.291 14.48 36.9176 14.83ZM47.5822 11.995C47.4422 11.995 47.2672 11.96 47.0572 11.89C46.8472 11.82 46.6489 11.7267 46.4622 11.61C46.2989 11.4933 46.1589 11.365 46.0422 11.225C45.9489 11.0617 45.9139 10.8983 45.9372 10.735C45.9606 10.595 46.0189 10.4083 46.1122 10.175C46.2289 9.94167 46.3572 9.72 46.4972 9.51C46.6372 9.27667 46.7889 9.07833 46.9522 8.915C47.1389 8.75167 47.3139 8.64667 47.4772 8.6C47.6406 8.57667 47.8389 8.61167 48.0722 8.705C48.3056 8.775 48.5272 8.89167 48.7372 9.055C48.9472 9.195 49.1106 9.35833 49.2272 9.545C49.3672 9.70833 49.4256 9.84833 49.4022 9.965C49.4022 10.105 49.3322 10.2917 49.1922 10.525C49.0522 10.735 48.8889 10.945 48.7022 11.155C48.5156 11.365 48.3172 11.5517 48.1072 11.715C47.8972 11.8783 47.7222 11.9717 47.5822 11.995ZM48.9122 15.425C49.3789 15.005 49.7289 14.8767 49.9622 15.04C50.1956 15.2033 50.1022 15.5417 49.6822 16.055C49.4022 16.405 49.0639 16.7783 48.6672 17.175C48.2706 17.5483 47.8622 17.91 47.4422 18.26C47.0456 18.5867 46.6722 18.8783 46.3222 19.135C45.9722 19.3683 45.7039 19.5083 45.5172 19.555C45.2606 19.5783 44.9572 19.5317 44.6072 19.415C44.2806 19.2983 43.9539 19.1233 43.6272 18.89C43.3239 18.6567 43.0789 18.3767 42.8922 18.05C42.6822 17.7 42.6006 17.315 42.6472 16.895C42.6939 16.4983 42.8106 16.0667 42.9972 15.6C43.1606 15.11 43.3589 14.6667 43.5922 14.27C43.8256 13.8733 44.0589 13.5467 44.2922 13.29C44.5256 13.0333 44.7356 12.9167 44.9222 12.94C45.0856 12.9867 45.2606 13.0567 45.4472 13.15C45.6339 13.22 45.7972 13.3133 45.9372 13.43C46.1006 13.5233 46.2289 13.64 46.3222 13.78C46.4156 13.92 46.4506 14.0833 46.4272 14.27C46.4039 14.4567 46.2989 14.7367 46.1122 15.11C45.9256 15.46 45.7389 15.8217 45.5522 16.195C45.3656 16.5683 45.2022 16.9067 45.0622 17.21C44.9222 17.5133 44.8989 17.7 44.9922 17.77C45.0622 17.8167 45.2256 17.7933 45.4822 17.7C45.7622 17.5833 46.0772 17.42 46.4272 17.21C46.8006 17 47.1972 16.7433 47.6172 16.44C48.0606 16.1367 48.4922 15.7983 48.9122 15.425ZM64.242 2.16C64.2653 2.46333 64.1136 2.86 63.787 3.35C63.4836 3.84 62.9353 4.51667 62.142 5.38C61.3486 6.24333 60.2636 7.35167 58.887 8.705C57.5336 10.0583 55.8303 11.75 53.777 13.78C52.587 14.9933 51.5836 16.23 50.767 17.49C50.9303 17.5133 51.222 17.4433 51.642 17.28C52.0853 17.1167 52.5403 16.9183 53.007 16.685C53.497 16.4283 53.9636 16.1717 54.407 15.915C54.8736 15.635 55.212 15.4017 55.422 15.215C55.6553 15.005 55.8303 14.9 55.947 14.9C56.087 14.9 56.157 14.9583 56.157 15.075C56.1803 15.1683 56.157 15.3083 56.087 15.495C56.017 15.6583 55.9003 15.8217 55.737 15.985C54.407 17.1983 53.3686 18.085 52.622 18.645C51.8986 19.205 51.397 19.52 51.117 19.59C50.8603 19.6367 50.627 19.6017 50.417 19.485C50.207 19.345 50.0203 19.1817 49.857 18.995C49.0636 20.325 48.4686 21.48 48.072 22.46C47.6753 23.4167 47.3953 23.9767 47.232 24.14C47.1153 24.2333 46.9286 24.2217 46.672 24.105C46.4153 24.0117 46.1586 23.86 45.902 23.65C45.622 23.44 45.377 23.2067 45.167 22.95C44.9336 22.67 44.7936 22.4133 44.747 22.18C44.747 22.0867 44.9336 21.7133 45.307 21.06C45.6803 20.3833 46.1936 19.5433 46.847 18.54C47.5003 17.5133 48.247 16.3583 49.087 15.075C49.9503 13.7917 50.8486 12.4967 51.782 11.19C52.7153 9.86 53.6486 8.565 54.582 7.305C55.5386 6.02167 56.437 4.87833 57.277 3.875C58.117 2.84833 58.8636 2.02 59.517 1.39C60.1936 0.736666 60.7186 0.374999 61.092 0.304998C61.5586 0.211665 61.9786 0.223331 62.352 0.339998C62.7486 0.456666 63.0753 0.619999 63.332 0.829998C63.612 1.04 63.822 1.27333 63.962 1.53C64.1253 1.78667 64.2186 1.99667 64.242 2.16ZM62.562 2.23C62.4686 2.16 62.247 2.27667 61.897 2.58C61.547 2.86 61.1153 3.28 60.602 3.84C60.0886 4.37667 59.517 5.01833 58.887 5.765C58.257 6.48833 57.6036 7.27 56.927 8.11C56.2736 8.92667 55.6203 9.76667 54.967 10.63C54.3136 11.4933 53.707 12.31 53.147 13.08C54.197 12.0533 55.3053 10.9333 56.472 9.72C57.6386 8.50667 58.7003 7.375 59.657 6.325C60.6136 5.25167 61.372 4.34167 61.932 3.595C62.5153 2.825 62.7253 2.37 62.562 2.23ZM55.7968 11.47C55.9135 11.3533 56.6485 11.2717 58.0018 11.225C58.3752 10.8983 58.7252 10.63 59.0518 10.42C59.3785 10.21 59.6935 10.105 59.9968 10.105C60.2768 10.105 60.5802 10.2217 60.9068 10.455C61.2335 10.665 61.4902 10.91 61.6768 11.19C62.8668 11.19 64.1385 11.1783 65.4918 11.155C66.8452 11.1317 68.2218 11.0967 69.6218 11.05C71.3952 11.0033 73.1335 10.9333 74.8368 10.84C76.5402 10.7467 78.0802 10.6533 79.4568 10.56C80.8335 10.4667 81.9768 10.385 82.8868 10.315C83.7968 10.245 84.3568 10.21 84.5668 10.21C84.9635 10.21 85.3952 10.28 85.8618 10.42C86.3518 10.5367 86.7952 10.6883 87.1918 10.875C87.5885 11.0383 87.8918 11.225 88.1018 11.435C88.3352 11.6217 88.3818 11.7967 88.2418 11.96C88.1485 12.0533 87.6935 12.1117 86.8768 12.135C86.0602 12.135 84.9752 12.135 83.6218 12.135C82.2918 12.1117 80.7402 12.0883 78.9668 12.065C77.2168 12.0417 75.3502 12.03 73.3668 12.03C71.4068 12.0067 69.4002 12.0067 67.3468 12.03C65.2935 12.03 63.2985 12.0767 61.3618 12.17C61.1052 12.3567 60.7785 12.6367 60.3818 13.01C59.9852 13.3833 59.5768 13.7917 59.1568 14.235C58.7368 14.6783 58.3168 15.145 57.8968 15.635C57.5002 16.125 57.1618 16.58 56.8818 17C56.6018 17.42 56.4035 17.7933 56.2868 18.12C56.1935 18.4233 56.2285 18.6333 56.3918 18.75C56.5318 18.8433 56.8585 18.7383 57.3718 18.435C57.8852 18.1317 58.4335 17.77 59.0168 17.35C59.6235 16.93 60.1952 16.5217 60.7318 16.125C61.2918 15.705 61.6768 15.4367 61.8868 15.32C62.3068 15.04 62.6102 14.9817 62.7968 15.145C62.9835 15.3083 62.9718 15.53 62.7618 15.81C62.6452 15.95 62.3652 16.2533 61.9218 16.72C61.4785 17.1633 60.9535 17.63 60.3468 18.12C59.7635 18.5867 59.1452 19.0067 58.4918 19.38C57.8618 19.7533 57.3135 19.94 56.8468 19.94C55.8902 19.94 55.2718 19.6833 54.9918 19.17C54.6885 18.6333 54.5952 17.98 54.7118 17.21C54.8285 16.4167 55.1085 15.5767 55.5518 14.69C55.9952 13.78 56.4968 12.9633 57.0568 12.24C55.9602 12.0067 55.5402 11.75 55.7968 11.47ZM67.856 13.535C67.996 13.395 68.171 13.36 68.381 13.43C68.6143 13.4767 68.836 13.5933 69.046 13.78C69.256 13.9433 69.4426 14.1533 69.606 14.41C69.7926 14.6433 69.9093 14.8533 69.956 15.04C69.9793 15.2267 69.8976 15.4833 69.711 15.81C69.5243 16.1367 69.326 16.475 69.116 16.825C68.9293 17.1517 68.7776 17.455 68.661 17.735C68.5443 18.015 68.5676 18.19 68.731 18.26C68.8943 18.3067 69.1626 18.1783 69.536 17.875C69.9326 17.5483 70.3643 17.1517 70.831 16.685C70.621 16.3817 70.5393 16.055 70.586 15.705C70.656 15.3317 70.7843 15.005 70.971 14.725C71.181 14.4217 71.426 14.165 71.706 13.955C71.986 13.745 72.266 13.64 72.546 13.64H72.581C72.8843 13.64 73.106 13.71 73.246 13.85C73.4093 13.99 73.491 14.1767 73.491 14.41C73.5143 14.6433 73.4676 14.9 73.351 15.18C73.2576 15.46 73.1293 15.74 72.966 16.02C73.2926 16.23 73.736 16.335 74.296 16.335C74.856 16.335 75.3926 16.09 75.906 15.6C76.0226 15.4833 76.151 15.4017 76.291 15.355C76.431 15.3083 76.536 15.2967 76.606 15.32C76.6993 15.32 76.746 15.3667 76.746 15.46C76.7693 15.5533 76.711 15.6817 76.571 15.845C76.2443 16.2183 75.8826 16.5567 75.486 16.86C75.1126 17.14 74.716 17.3617 74.296 17.525C73.876 17.6883 73.4443 17.7817 73.001 17.805C72.581 17.805 72.161 17.7 71.741 17.49C71.1343 18.0967 70.516 18.6333 69.886 19.1C69.256 19.5667 68.6726 19.8 68.136 19.8C67.996 19.8 67.821 19.7417 67.611 19.625C67.4243 19.5083 67.226 19.3683 67.016 19.205C66.8293 19.0183 66.6543 18.82 66.491 18.61C66.351 18.3767 66.2576 18.1667 66.211 17.98C66.141 17.7933 66.0943 17.6067 66.071 17.42C66.071 17.2333 66.071 17.0467 66.071 16.86C65.791 17.1167 65.4876 17.4083 65.161 17.735C64.8576 18.0617 64.5426 18.365 64.216 18.645C63.9126 18.925 63.621 19.17 63.341 19.38C63.0843 19.5667 62.851 19.66 62.641 19.66C62.5243 19.66 62.361 19.625 62.151 19.555C61.941 19.4617 61.731 19.345 61.521 19.205C61.2876 19.065 61.0776 18.9133 60.891 18.75C60.7043 18.5633 60.5993 18.365 60.576 18.155C60.5526 17.945 60.6343 17.6067 60.821 17.14C61.0076 16.6733 61.241 16.1717 61.521 15.635C61.801 15.0983 62.1043 14.585 62.431 14.095C62.781 13.5817 63.096 13.185 63.376 12.905C63.516 12.7883 63.7026 12.765 63.936 12.835C64.1693 12.8817 64.4026 12.9867 64.636 13.15C64.8693 13.29 65.0793 13.465 65.266 13.675C65.4526 13.885 65.5693 14.0833 65.616 14.27C65.6393 14.3867 65.581 14.5617 65.441 14.795C65.3243 15.0283 65.161 15.285 64.951 15.565C64.741 15.845 64.531 16.1367 64.321 16.44C64.111 16.72 63.9243 16.9767 63.761 17.21C63.5976 17.42 63.4926 17.5833 63.446 17.7C63.4226 17.8167 63.4926 17.84 63.656 17.77C63.796 17.7 63.971 17.5833 64.181 17.42C64.4143 17.2333 64.6593 17.0233 64.916 16.79C65.196 16.5333 65.476 16.265 65.756 15.985C66.0593 15.6817 66.3393 15.39 66.596 15.11C66.7593 14.7833 66.946 14.5033 67.156 14.27C67.366 14.0133 67.5993 13.7683 67.856 13.535ZM79.2373 12.94C79.5639 12.94 79.8556 13.0217 80.1123 13.185C80.3923 13.3483 80.5556 13.57 80.6023 13.85C81.2089 13.99 81.6406 14.2817 81.8973 14.725C82.1539 15.1683 82.2589 15.67 82.2123 16.23C82.7956 16.3 83.3556 16.2067 83.8923 15.95C84.4523 15.6933 84.8839 15.3783 85.1873 15.005C85.3739 14.795 85.5373 14.655 85.6773 14.585C85.8406 14.515 85.9689 14.5033 86.0623 14.55C86.1556 14.5967 86.2023 14.69 86.2023 14.83C86.2023 14.9467 86.1556 15.0867 86.0623 15.25C85.6889 15.88 85.1406 16.4517 84.4173 16.965C83.7173 17.4783 82.7839 17.805 81.6173 17.945C81.3139 18.4117 80.9289 18.8317 80.4623 19.205C80.0189 19.5783 79.4823 19.8583 78.8523 20.045C78.5723 20.1383 78.2223 20.1383 77.8023 20.045C77.4056 19.9517 77.0089 19.7767 76.6123 19.52C76.2389 19.2633 75.9239 18.9367 75.6673 18.54C75.4106 18.1433 75.3173 17.7 75.3873 17.21C75.4339 16.7433 75.5739 16.265 75.8073 15.775C76.0173 15.2617 76.2856 14.795 76.6123 14.375C76.9623 13.955 77.3589 13.6167 77.8023 13.36C78.2456 13.08 78.7239 12.94 79.2373 12.94ZM77.8373 18.715C77.9539 18.9017 78.1989 18.9017 78.5723 18.715C78.9456 18.5283 79.3073 18.2367 79.6573 17.84C79.4006 17.6533 79.1789 17.4083 78.9923 17.105C78.8056 16.7783 78.6773 16.405 78.6073 15.985C78.2106 16.5217 77.9306 17.0583 77.7673 17.595C77.6039 18.1083 77.6273 18.4817 77.8373 18.715ZM87.9873 12.94C88.3139 12.94 88.6056 13.0217 88.8623 13.185C89.1423 13.3483 89.3056 13.57 89.3523 13.85C89.9589 13.99 90.3906 14.2817 90.6473 14.725C90.9039 15.1683 91.0089 15.67 90.9623 16.23C91.5456 16.3 92.1056 16.2067 92.6423 15.95C93.2023 15.6933 93.6339 15.3783 93.9373 15.005C94.1239 14.795 94.2873 14.655 94.4273 14.585C94.5906 14.515 94.7189 14.5033 94.8123 14.55C94.9056 14.5967 94.9523 14.69 94.9523 14.83C94.9523 14.9467 94.9056 15.0867 94.8123 15.25C94.4389 15.88 93.8906 16.4517 93.1673 16.965C92.4673 17.4783 91.5339 17.805 90.3673 17.945C90.0639 18.4117 89.6789 18.8317 89.2123 19.205C88.7689 19.5783 88.2323 19.8583 87.6023 20.045C87.3223 20.1383 86.9723 20.1383 86.5523 20.045C86.1556 19.9517 85.7589 19.7767 85.3623 19.52C84.9889 19.2633 84.6739 18.9367 84.4173 18.54C84.1606 18.1433 84.0673 17.7 84.1373 17.21C84.1839 16.7433 84.3239 16.265 84.5573 15.775C84.7673 15.2617 85.0356 14.795 85.3623 14.375C85.7123 13.955 86.1089 13.6167 86.5523 13.36C86.9956 13.08 87.4739 12.94 87.9873 12.94ZM86.5873 18.715C86.7039 18.9017 86.9489 18.9017 87.3223 18.715C87.6956 18.5283 88.0573 18.2367 88.4073 17.84C88.1506 17.6533 87.9289 17.4083 87.7423 17.105C87.5556 16.7783 87.4273 16.405 87.3573 15.985C86.9606 16.5217 86.6806 17.0583 86.5173 17.595C86.3539 18.1083 86.3773 18.4817 86.5873 18.715ZM96.1773 13.36C96.4806 13.3133 96.8189 13.325 97.1923 13.395C97.5889 13.4417 97.9389 13.5583 98.2423 13.745C98.8256 12.485 99.5373 11.0967 100.377 9.58C101.217 8.06333 102.081 6.64 102.967 5.31C103.877 3.95667 104.752 2.81333 105.592 1.88C106.432 0.946665 107.132 0.421665 107.692 0.304998C108.159 0.234999 108.591 0.258333 108.987 0.375C109.384 0.491666 109.722 0.654999 110.002 0.865C110.306 1.075 110.539 1.30833 110.702 1.565C110.866 1.79833 110.971 1.99667 111.017 2.16C111.064 2.51 110.912 2.97667 110.562 3.56C110.236 4.12 109.606 4.93667 108.672 6.01C107.762 7.08333 106.514 8.47167 104.927 10.175C103.341 11.8783 101.346 14.0483 98.9423 16.685C98.7556 17.0817 98.7206 17.3383 98.8373 17.455C98.9073 17.5717 99.1406 17.56 99.5373 17.42C99.9339 17.28 100.377 17.0817 100.867 16.825C101.381 16.545 101.871 16.265 102.337 15.985C102.827 15.6817 103.177 15.425 103.387 15.215C103.621 15.005 103.796 14.9 103.912 14.9C104.029 14.9 104.099 14.9583 104.122 15.075C104.169 15.1683 104.157 15.3083 104.087 15.495C104.017 15.6583 103.901 15.8217 103.737 15.985C102.547 17.1983 101.614 18.085 100.937 18.645C100.284 19.205 99.8056 19.52 99.5023 19.59C99.1056 19.66 98.7439 19.5317 98.4173 19.205C98.0906 18.8783 97.8106 18.4933 97.5773 18.05C97.1573 18.5167 96.7373 18.925 96.3173 19.275C95.9206 19.6017 95.6173 19.7883 95.4073 19.835C95.1506 19.8817 94.8589 19.8817 94.5323 19.835C94.2289 19.765 93.9256 19.6483 93.6223 19.485C93.3423 19.3217 93.0856 19.1117 92.8523 18.855C92.6189 18.575 92.4673 18.26 92.3973 17.91C92.3039 17.49 92.4089 17.0233 92.7123 16.51C92.9923 15.9967 93.3423 15.5183 93.7623 15.075C94.2056 14.6083 94.6489 14.2233 95.0923 13.92C95.5589 13.5933 95.9206 13.4067 96.1773 13.36ZM109.372 2.23C109.256 2.16 109.034 2.27667 108.707 2.58C108.404 2.86 108.019 3.26833 107.552 3.805C107.109 4.31833 106.607 4.94833 106.047 5.695C105.487 6.41833 104.916 7.18833 104.332 8.005C103.749 8.82167 103.166 9.66167 102.582 10.525C102.022 11.365 101.497 12.17 101.007 12.94C101.637 12.24 102.291 11.505 102.967 10.735C103.667 9.965 104.344 9.20667 104.997 8.46C105.651 7.69 106.269 6.955 106.852 6.255C107.436 5.53167 107.926 4.89 108.322 4.33C108.742 3.77 109.046 3.30333 109.232 2.93C109.442 2.55667 109.489 2.32333 109.372 2.23ZM94.9523 18.715C95.0689 18.8317 95.3139 18.7617 95.6873 18.505C96.0606 18.2483 96.5506 17.7117 97.1573 16.895C97.1573 16.5917 97.2039 16.2883 97.2973 15.985C97.3906 15.6817 97.5306 15.32 97.7173 14.9C97.4373 14.97 97.1106 15.1917 96.7373 15.565C96.3639 15.915 96.0256 16.3117 95.7223 16.755C95.4189 17.175 95.1856 17.5833 95.0223 17.98C94.8589 18.3767 94.8356 18.6217 94.9523 18.715ZM149.923 1.81C150.95 2.09 151.755 2.46333 152.338 2.93C152.921 3.39667 153.26 3.88667 153.353 4.4C153.47 4.91333 153.33 5.415 152.933 5.905C152.56 6.37167 151.93 6.75667 151.043 7.06C150.483 7.27 149.958 7.32833 149.468 7.235C149.001 7.14167 148.605 7.00167 148.278 6.815C147.975 6.605 147.753 6.395 147.613 6.185C147.496 5.975 147.508 5.84667 147.648 5.8C147.951 5.73 148.36 5.625 148.873 5.485C149.41 5.32167 149.876 5.11167 150.273 4.855C151.066 4.31833 151.381 3.85167 151.218 3.455C151.078 3.05833 150.518 2.77833 149.538 2.615C148.558 2.42833 147.193 2.37 145.443 2.44C143.716 2.51 141.686 2.74333 139.353 3.14C137.883 3.37333 136.378 3.68833 134.838 4.085C133.298 4.45833 131.781 4.925 130.288 5.485C128.795 6.045 127.348 6.71 125.948 7.48C124.571 8.22667 123.3 9.09 122.133 10.07C121.013 10.98 120.278 11.82 119.928 12.59C119.601 13.3367 119.601 13.9083 119.928 14.305C120.045 14.445 120.021 14.5267 119.858 14.55C119.718 14.5733 119.52 14.5383 119.263 14.445C119.03 14.3517 118.785 14.2 118.528 13.99C118.271 13.7567 118.096 13.465 118.003 13.115C117.723 12.2283 117.758 11.3767 118.108 10.56C118.458 9.74333 118.995 8.985 119.718 8.285C120.465 7.56167 121.328 6.885 122.308 6.255C123.311 5.625 124.326 5.05333 125.353 4.54C127.126 3.63 129.063 2.88333 131.163 2.3C133.263 1.71667 135.398 1.30833 137.568 1.075C139.738 0.841666 141.885 0.783333 144.008 0.899999C146.131 1.01667 148.103 1.32 149.923 1.81ZM127.033 23.335C127.196 22.355 127.465 21.2933 127.838 20.15C128.211 19.0067 128.643 17.8517 129.133 16.685C129.646 15.495 130.195 14.3283 130.778 13.185C131.361 12.0183 131.968 10.9567 132.598 10C133.228 9.02 133.846 8.16833 134.453 7.445C135.083 6.69833 135.666 6.15 136.203 5.8C136.53 5.59 136.891 5.45 137.288 5.38C137.685 5.28667 138.046 5.25167 138.373 5.275C138.723 5.275 139.003 5.31 139.213 5.38C139.423 5.42667 139.493 5.485 139.423 5.555C138.886 6.115 138.256 6.85 137.533 7.76C136.833 8.64667 136.11 9.65 135.363 10.77C134.616 11.8667 133.87 13.045 133.123 14.305C132.376 15.565 131.7 16.86 131.093 18.19C130.486 19.4967 129.961 20.8033 129.518 22.11C129.075 23.4167 128.783 24.665 128.643 25.855C128.596 26.135 128.468 26.275 128.258 26.275C128.048 26.275 127.838 26.1467 127.628 25.89C127.418 25.6567 127.231 25.3183 127.068 24.875C126.928 24.455 126.916 23.9417 127.033 23.335ZM148.136 15.355C148.463 15.0517 148.719 14.9817 148.906 15.145C149.116 15.285 149.058 15.5533 148.731 15.95C148.544 16.16 148.288 16.475 147.961 16.895C147.634 17.2917 147.296 17.7 146.946 18.12C146.596 18.54 146.246 18.9133 145.896 19.24C145.546 19.5667 145.254 19.7533 145.021 19.8C144.718 19.87 144.286 19.8233 143.726 19.66C143.189 19.4967 142.723 19.2517 142.326 18.925C142.023 19.135 141.731 19.345 141.451 19.555C141.171 19.7417 140.891 19.8817 140.611 19.975C140.354 20.0217 140.039 20.01 139.666 19.94C139.293 19.87 138.919 19.7417 138.546 19.555C138.196 19.345 137.881 19.1 137.601 18.82C137.321 18.54 137.134 18.2133 137.041 17.84C136.948 17.4433 137.053 16.9767 137.356 16.44C137.636 15.88 137.986 15.355 138.406 14.865C138.826 14.375 139.258 13.955 139.701 13.605C140.168 13.2317 140.529 13.0333 140.786 13.01C140.949 12.9867 141.148 12.9983 141.381 13.045C141.638 13.0917 141.883 13.1733 142.116 13.29C142.373 13.4067 142.594 13.5467 142.781 13.71C142.991 13.8733 143.131 14.06 143.201 14.27C143.528 13.99 143.808 13.8617 144.041 13.885C144.228 13.9317 144.426 13.99 144.636 14.06C144.846 14.13 145.033 14.2117 145.196 14.305C145.383 14.3983 145.534 14.515 145.651 14.655C145.768 14.795 145.814 14.9467 145.791 15.11C145.791 15.2967 145.698 15.5533 145.511 15.88C145.324 16.1833 145.126 16.4983 144.916 16.825C144.706 17.1517 144.531 17.4433 144.391 17.7C144.251 17.9567 144.228 18.12 144.321 18.19C144.391 18.2367 144.543 18.19 144.776 18.05C145.033 17.8867 145.336 17.6767 145.686 17.42C146.036 17.14 146.421 16.825 146.841 16.475C147.284 16.125 147.716 15.7517 148.136 15.355ZM139.351 18.715C139.608 18.855 139.923 18.785 140.296 18.505C140.693 18.2017 141.066 17.8283 141.416 17.385C141.766 16.9417 142.058 16.4867 142.291 16.02C142.548 15.5533 142.676 15.2033 142.676 14.97C142.583 14.76 142.419 14.7017 142.186 14.795C141.953 14.8883 141.696 15.0633 141.416 15.32C141.136 15.5767 140.844 15.8917 140.541 16.265C140.261 16.6383 140.016 17 139.806 17.35C139.596 17.6767 139.433 17.98 139.316 18.26C139.223 18.5167 139.234 18.6683 139.351 18.715ZM158.955 12.03C158.138 12.0533 157.321 12.0767 156.505 12.1C155.711 12.1 154.93 12.1233 154.16 12.17C153.903 12.3567 153.576 12.6367 153.18 13.01C152.783 13.3833 152.375 13.7917 151.955 14.235C151.535 14.6783 151.115 15.145 150.695 15.635C150.298 16.125 149.96 16.58 149.68 17C149.4 17.42 149.201 17.7933 149.085 18.12C148.991 18.4233 149.026 18.6333 149.19 18.75C149.33 18.8433 149.656 18.7383 150.17 18.435C150.683 18.1317 151.231 17.77 151.815 17.35C152.421 16.93 152.993 16.5217 153.53 16.125C154.09 15.705 154.475 15.4367 154.685 15.32C155.105 15.04 155.408 14.9817 155.595 15.145C155.781 15.3083 155.77 15.53 155.56 15.81C155.443 15.95 155.163 16.2533 154.72 16.72C154.276 17.1633 153.751 17.63 153.145 18.12C152.561 18.5867 151.943 19.0067 151.29 19.38C150.66 19.7533 150.111 19.94 149.645 19.94C148.688 19.94 148.07 19.6833 147.79 19.17C147.486 18.6333 147.393 17.98 147.51 17.21C147.626 16.4167 147.906 15.5767 148.35 14.69C148.793 13.78 149.295 12.9633 149.855 12.24C148.758 12.0067 148.338 11.75 148.595 11.47C148.711 11.3533 149.446 11.2717 150.8 11.225C151.173 10.8983 151.523 10.63 151.85 10.42C152.176 10.21 152.491 10.105 152.795 10.105C153.075 10.105 153.378 10.2217 153.705 10.455C154.031 10.665 154.288 10.91 154.475 11.19C155.151 11.19 155.863 11.19 156.61 11.19C157.356 11.19 158.126 11.1783 158.92 11.155L158.955 12.03ZM157.31 11.225C157.683 10.8983 158.033 10.63 158.36 10.42C158.686 10.21 159.001 10.105 159.305 10.105C159.585 10.105 159.888 10.2217 160.215 10.455C160.541 10.665 160.798 10.91 160.985 11.19C162.175 11.19 163.446 11.1783 164.8 11.155C166.153 11.1317 167.53 11.0967 168.93 11.05C170.703 11.0033 172.325 10.9333 173.795 10.84C175.265 10.7467 176.548 10.6533 177.645 10.56C178.765 10.4667 179.663 10.385 180.34 10.315C181.04 10.245 181.495 10.21 181.705 10.21C182.101 10.21 182.533 10.28 183 10.42C183.49 10.5367 183.933 10.6883 184.33 10.875C184.726 11.0383 185.03 11.225 185.24 11.435C185.473 11.6217 185.52 11.7967 185.38 11.96C185.31 12.0533 184.913 12.1117 184.19 12.135C183.466 12.135 182.51 12.135 181.32 12.135C180.153 12.1117 178.776 12.0883 177.19 12.065C175.626 12.0417 173.935 12.03 172.115 12.03C170.318 12.0067 168.44 12.0067 166.48 12.03C164.543 12.03 162.606 12.0767 160.67 12.17C160.413 12.3567 160.086 12.6367 159.69 13.01C159.293 13.3833 158.885 13.7917 158.465 14.235C158.045 14.6783 157.625 15.145 157.205 15.635C156.808 16.125 156.47 16.58 156.19 17C155.91 17.42 155.711 17.7933 155.595 18.12C155.501 18.4233 155.536 18.6333 155.7 18.75C155.84 18.8433 156.166 18.7383 156.68 18.435C157.193 18.1317 157.741 17.77 158.325 17.35C158.931 16.93 159.503 16.5217 160.04 16.125C160.6 15.705 160.985 15.4367 161.195 15.32C161.615 15.04 161.918 14.9817 162.105 15.145C162.291 15.3083 162.28 15.53 162.07 15.81C161.953 15.95 161.673 16.2533 161.23 16.72C160.786 17.1633 160.261 17.63 159.655 18.12C159.071 18.5867 158.453 19.0067 157.8 19.38C157.17 19.7533 156.621 19.94 156.155 19.94C155.198 19.94 154.568 19.6833 154.265 19.17C153.985 18.6333 153.903 17.98 154.02 17.21C154.136 16.4167 154.416 15.5767 154.86 14.69C155.303 13.78 155.805 12.9633 156.365 12.24L157.31 11.225ZM164.242 12.94C164.569 12.94 164.86 13.0217 165.117 13.185C165.397 13.3483 165.56 13.57 165.607 13.85C166.214 13.99 166.645 14.2817 166.902 14.725C167.159 15.1683 167.264 15.67 167.217 16.23C167.8 16.3 168.36 16.2067 168.897 15.95C169.457 15.6933 169.889 15.3783 170.192 15.005C170.379 14.795 170.542 14.655 170.682 14.585C170.845 14.515 170.974 14.5033 171.067 14.55C171.16 14.5967 171.207 14.69 171.207 14.83C171.207 14.9467 171.16 15.0867 171.067 15.25C170.694 15.88 170.145 16.4517 169.422 16.965C168.722 17.4783 167.789 17.805 166.622 17.945C166.319 18.4117 165.934 18.8317 165.467 19.205C165.024 19.5783 164.487 19.8583 163.857 20.045C163.577 20.1383 163.227 20.1383 162.807 20.045C162.41 19.9517 162.014 19.7767 161.617 19.52C161.244 19.2633 160.929 18.9367 160.672 18.54C160.415 18.1433 160.322 17.7 160.392 17.21C160.439 16.7433 160.579 16.265 160.812 15.775C161.022 15.2617 161.29 14.795 161.617 14.375C161.967 13.955 162.364 13.6167 162.807 13.36C163.25 13.08 163.729 12.94 164.242 12.94ZM162.842 18.715C162.959 18.9017 163.204 18.9017 163.577 18.715C163.95 18.5283 164.312 18.2367 164.662 17.84C164.405 17.6533 164.184 17.4083 163.997 17.105C163.81 16.7783 163.682 16.405 163.612 15.985C163.215 16.5217 162.935 17.0583 162.772 17.595C162.609 18.1083 162.632 18.4817 162.842 18.715ZM172.992 12.94C173.319 12.94 173.61 13.0217 173.867 13.185C174.147 13.3483 174.31 13.57 174.357 13.85C174.964 13.99 175.395 14.2817 175.652 14.725C175.909 15.1683 176.014 15.67 175.967 16.23C176.55 16.3 177.11 16.2067 177.647 15.95C178.207 15.6933 178.639 15.3783 178.942 15.005C179.129 14.795 179.292 14.655 179.432 14.585C179.595 14.515 179.724 14.5033 179.817 14.55C179.91 14.5967 179.957 14.69 179.957 14.83C179.957 14.9467 179.91 15.0867 179.817 15.25C179.444 15.88 178.895 16.4517 178.172 16.965C177.472 17.4783 176.539 17.805 175.372 17.945C175.069 18.4117 174.684 18.8317 174.217 19.205C173.774 19.5783 173.237 19.8583 172.607 20.045C172.327 20.1383 171.977 20.1383 171.557 20.045C171.16 19.9517 170.764 19.7767 170.367 19.52C169.994 19.2633 169.679 18.9367 169.422 18.54C169.165 18.1433 169.072 17.7 169.142 17.21C169.189 16.7433 169.329 16.265 169.562 15.775C169.772 15.2617 170.04 14.795 170.367 14.375C170.717 13.955 171.114 13.6167 171.557 13.36C172 13.08 172.479 12.94 172.992 12.94ZM171.592 18.715C171.709 18.9017 171.954 18.9017 172.327 18.715C172.7 18.5283 173.062 18.2367 173.412 17.84C173.155 17.6533 172.934 17.4083 172.747 17.105C172.56 16.7783 172.432 16.405 172.362 15.985C171.965 16.5217 171.685 17.0583 171.522 17.595C171.359 18.1083 171.382 18.4817 171.592 18.715Z" fill="white"/>
</svg>
