<svg width="194" height="31" viewBox="0 0 194 31" fill="none" xmlns="http://www.w3.org/2000/svg">
<path d="M9.272 5.442C10.6907 4.42867 12.274 3.59267 14.022 2.934C15.77 2.25 17.556 1.74333 19.38 1.414C21.2293 1.08467 23.066 0.945332 24.89 0.995998C26.714 1.04667 28.3987 1.3 29.944 1.756C31.5147 2.18667 32.8953 2.82 34.086 3.656C35.302 4.492 36.2267 5.53067 36.86 6.772C37.468 8.03867 37.734 9.33067 37.658 10.648C37.6073 11.9653 37.316 13.2827 36.784 14.6C36.252 15.892 35.5173 17.146 34.58 18.362C33.6427 19.578 32.5913 20.7053 31.426 21.744C29.6273 23.34 27.55 24.784 25.194 26.076C22.8633 27.3933 20.406 28.394 17.822 29.078C15.238 29.762 12.6033 30.066 9.918 29.99C7.23267 29.9393 4.66133 29.344 2.204 28.204C1.672 27.9507 1.22867 27.6973 0.874 27.444C0.519333 27.1907 0.304 26.988 0.228 26.836C0.177333 26.684 0.278667 26.608 0.532 26.608C0.810667 26.6333 1.31733 26.7853 2.052 27.064C3.724 27.748 5.49733 28.09 7.372 28.09C9.272 28.1153 11.134 27.9253 12.958 27.52C12.9073 26.6587 12.9833 25.6327 13.186 24.442C13.414 23.226 13.718 21.972 14.098 20.68C14.478 19.3627 14.9213 18.058 15.428 16.766C15.96 15.474 16.492 14.3087 17.024 13.27C17.5813 12.206 18.1133 11.332 18.62 10.648C19.152 9.93867 19.6333 9.52067 20.064 9.394C20.4693 9.29267 20.8873 9.242 21.318 9.242C21.7487 9.242 22.116 9.29267 22.42 9.394C22.7493 9.47 22.9773 9.59667 23.104 9.774C23.256 9.926 23.2433 10.0907 23.066 10.268C22.5847 10.8253 21.9767 11.6993 21.242 12.89C20.5073 14.0807 19.7727 15.4487 19.038 16.994C18.3033 18.514 17.6193 20.1353 16.986 21.858C16.3527 23.5553 15.9093 25.2147 15.656 26.836C17.5307 26.3547 19.4307 25.62 21.356 24.632C23.3067 23.644 25.1433 22.5167 26.866 21.25C28.5887 19.958 30.134 18.5773 31.502 17.108C32.8953 15.6387 33.9593 14.182 34.694 12.738C35.454 11.294 35.834 9.926 35.834 8.634C35.834 7.31667 35.3147 6.18933 34.276 5.252C33.3893 4.416 32.2493 3.846 30.856 3.542C29.488 3.21267 27.9807 3.09867 26.334 3.2C24.7127 3.276 23.0153 3.542 21.242 3.998C19.4687 4.42867 17.746 4.99867 16.074 5.708C14.402 6.392 12.8313 7.19 11.362 8.102C9.89267 8.98867 8.63867 9.926 7.6 10.914C7.34667 11.142 7.15667 11.0913 7.03 10.762C6.90333 10.4073 6.878 9.926 6.954 9.318C7.03 8.71 7.24533 8.05133 7.6 7.342C7.98 6.60733 8.53733 5.974 9.272 5.442ZM40.082 16.044C40.1833 16.1453 40.3353 16.196 40.538 16.196C40.7407 16.1707 40.9433 16.12 41.146 16.044C41.374 15.968 41.5767 15.8793 41.754 15.778C41.9567 15.6767 42.096 15.588 42.172 15.512C42.2227 15.4107 42.3493 15.36 42.552 15.36C42.78 15.36 43.008 15.4107 43.236 15.512C43.464 15.588 43.6667 15.7147 43.844 15.892C44.0467 16.044 44.1733 16.234 44.224 16.462C44.2493 16.6647 44.148 16.956 43.92 17.336C43.7173 17.716 43.4893 18.096 43.236 18.476C43.008 18.8307 42.8307 19.1473 42.704 19.426C42.5773 19.7047 42.6153 19.844 42.818 19.844C43.0207 19.844 43.312 19.7047 43.692 19.426C44.0973 19.122 44.5153 18.78 44.946 18.4C45.3767 18.02 45.782 17.64 46.162 17.26C46.542 16.88 46.8207 16.6013 46.998 16.424C47.378 16.0947 47.6947 15.968 47.948 16.044C48.2267 16.12 48.2013 16.386 47.872 16.842C47.72 17.07 47.4793 17.3993 47.15 17.83C46.846 18.2607 46.4913 18.7167 46.086 19.198C45.6807 19.6793 45.25 20.1353 44.794 20.566C44.338 20.9967 43.882 21.3007 43.426 21.478C43.2233 21.554 42.932 21.554 42.552 21.478C42.1973 21.402 41.83 21.2753 41.45 21.098C41.07 20.9207 40.7407 20.6927 40.462 20.414C40.1833 20.11 40.0567 19.768 40.082 19.388C40.082 19.0587 40.158 18.7167 40.31 18.362C40.4873 17.982 40.6773 17.5767 40.88 17.146C40.424 17.2727 39.9553 17.2853 39.474 17.184C38.9927 17.0827 38.6 16.9053 38.296 16.652C37.992 16.3987 37.8147 16.0947 37.764 15.74C37.7133 15.36 37.878 14.9547 38.258 14.524C38.6633 14.0427 39.056 13.7767 39.436 13.726C39.8413 13.6753 40.158 13.764 40.386 13.992C40.614 14.1947 40.7153 14.4987 40.69 14.904C40.69 15.284 40.4873 15.664 40.082 16.044ZM51.6607 12.966C51.5087 12.966 51.3187 12.928 51.0907 12.852C50.8627 12.776 50.6474 12.6747 50.4447 12.548C50.2674 12.4213 50.1154 12.282 49.9887 12.13C49.8874 11.9527 49.8494 11.7753 49.8747 11.598C49.9 11.446 49.9634 11.2433 50.0647 10.99C50.1914 10.7367 50.3307 10.496 50.4827 10.268C50.6347 10.0147 50.7994 9.79933 50.9767 9.622C51.1794 9.44467 51.3694 9.33067 51.5467 9.28C51.724 9.25467 51.9394 9.29267 52.1927 9.394C52.446 9.47 52.6867 9.59667 52.9147 9.774C53.1427 9.926 53.32 10.1033 53.4467 10.306C53.5987 10.4833 53.662 10.6353 53.6367 10.762C53.6367 10.914 53.5607 11.1167 53.4087 11.37C53.2567 11.598 53.0794 11.826 52.8767 12.054C52.674 12.282 52.4587 12.4847 52.2307 12.662C52.0027 12.8393 51.8127 12.9407 51.6607 12.966ZM53.1047 16.69C53.6114 16.234 53.9914 16.0947 54.2447 16.272C54.498 16.4493 54.3967 16.8167 53.9407 17.374C53.6367 17.754 53.2694 18.1593 52.8387 18.59C52.408 18.9953 51.9647 19.388 51.5087 19.768C51.078 20.1227 50.6727 20.4393 50.2927 20.718C49.9127 20.9713 49.6214 21.1233 49.4187 21.174C49.14 21.1993 48.8107 21.1487 48.4307 21.022C48.076 20.8953 47.7214 20.7053 47.3667 20.452C47.0374 20.1987 46.7714 19.8947 46.5687 19.54C46.3407 19.16 46.252 18.742 46.3027 18.286C46.3534 17.8553 46.48 17.3867 46.6827 16.88C46.86 16.348 47.0754 15.8667 47.3287 15.436C47.582 15.0053 47.8354 14.6507 48.0887 14.372C48.342 14.0933 48.57 13.9667 48.7727 13.992C48.95 14.0427 49.14 14.1187 49.3427 14.22C49.5454 14.296 49.7227 14.3973 49.8747 14.524C50.052 14.6253 50.1914 14.752 50.2927 14.904C50.394 15.056 50.432 15.2333 50.4067 15.436C50.3814 15.6387 50.2674 15.9427 50.0647 16.348C49.862 16.728 49.6594 17.1207 49.4567 17.526C49.254 17.9313 49.0767 18.2987 48.9247 18.628C48.7727 18.9573 48.7474 19.16 48.8487 19.236C48.9247 19.2867 49.102 19.2613 49.3807 19.16C49.6847 19.0333 50.0267 18.856 50.4067 18.628C50.812 18.4 51.2427 18.1213 51.6987 17.792C52.18 17.4627 52.6487 17.0953 53.1047 16.69ZM69.7484 2.288C69.7737 2.61733 69.6091 3.048 69.2544 3.58C68.9251 4.112 68.3297 4.84667 67.4684 5.784C66.6071 6.72133 65.4291 7.92467 63.9344 9.394C62.4651 10.8633 60.6157 12.7 58.3864 14.904C57.0944 16.2213 56.0051 17.564 55.1184 18.932C55.2957 18.9573 55.6124 18.8813 56.0684 18.704C56.5497 18.5267 57.0437 18.3113 57.5504 18.058C58.0824 17.7793 58.5891 17.5007 59.0704 17.222C59.5771 16.918 59.9444 16.6647 60.1724 16.462C60.4257 16.234 60.6157 16.12 60.7424 16.12C60.8944 16.12 60.9704 16.1833 60.9704 16.31C60.9957 16.4113 60.9704 16.5633 60.8944 16.766C60.8184 16.9433 60.6917 17.1207 60.5144 17.298C59.0704 18.6153 57.9431 19.578 57.1324 20.186C56.3471 20.794 55.8024 21.136 55.4984 21.212C55.2197 21.2627 54.9664 21.2247 54.7384 21.098C54.5104 20.946 54.3077 20.7687 54.1304 20.566C53.2691 22.01 52.6231 23.264 52.1924 24.328C51.7617 25.3667 51.4577 25.9747 51.2804 26.152C51.1537 26.2533 50.9511 26.2407 50.6724 26.114C50.3937 26.0127 50.1151 25.848 49.8364 25.62C49.5324 25.392 49.2664 25.1387 49.0384 24.86C48.7851 24.556 48.6331 24.2773 48.5824 24.024C48.5824 23.9227 48.7851 23.5173 49.1904 22.808C49.5957 22.0733 50.1531 21.1613 50.8624 20.072C51.5717 18.9573 52.3824 17.7033 53.2944 16.31C54.2317 14.9167 55.2071 13.5107 56.2204 12.092C57.2337 10.648 58.2471 9.242 59.2604 7.874C60.2991 6.48067 61.2744 5.23933 62.1864 4.15C63.0984 3.03533 63.9091 2.136 64.6184 1.452C65.3531 0.742666 65.9231 0.349999 66.3284 0.273998C66.8351 0.172665 67.2911 0.185331 67.6964 0.311998C68.1271 0.438666 68.4817 0.615999 68.7604 0.843998C69.0644 1.072 69.2924 1.32533 69.4444 1.604C69.6217 1.88267 69.7231 2.11067 69.7484 2.288ZM67.9244 2.364C67.8231 2.288 67.5824 2.41467 67.2024 2.744C66.8224 3.048 66.3537 3.504 65.7964 4.112C65.2391 4.69467 64.6184 5.39133 63.9344 6.202C63.2504 6.98733 62.5411 7.836 61.8064 8.748C61.0971 9.63467 60.3877 10.5467 59.6784 11.484C58.9691 12.4213 58.3104 13.308 57.7024 14.144C58.8424 13.0293 60.0457 11.8133 61.3124 10.496C62.5791 9.17867 63.7317 7.95 64.7704 6.81C65.8091 5.64467 66.6324 4.65667 67.2404 3.846C67.8737 3.01 68.1017 2.516 67.9244 2.364ZM60.5794 12.396C60.7061 12.2693 61.5041 12.1807 62.9734 12.13C63.3788 11.7753 63.7588 11.484 64.1134 11.256C64.4681 11.028 64.8101 10.914 65.1394 10.914C65.4434 10.914 65.7728 11.0407 66.1274 11.294C66.4821 11.522 66.7608 11.788 66.9634 12.092C68.2554 12.092 69.6361 12.0793 71.1054 12.054C72.5748 12.0287 74.0694 11.9907 75.5894 11.94C77.5148 11.8893 79.4021 11.8133 81.2514 11.712C83.1008 11.6107 84.7728 11.5093 86.2674 11.408C87.7621 11.3067 89.0034 11.218 89.9914 11.142C90.9794 11.066 91.5874 11.028 91.8154 11.028C92.2461 11.028 92.7148 11.104 93.2214 11.256C93.7534 11.3827 94.2348 11.5473 94.6654 11.75C95.0961 11.9273 95.4254 12.13 95.6534 12.358C95.9068 12.5607 95.9574 12.7507 95.8054 12.928C95.7041 13.0293 95.2101 13.0927 94.3234 13.118C93.4368 13.118 92.2588 13.118 90.7894 13.118C89.3454 13.0927 87.6608 13.0673 85.7354 13.042C83.8354 13.0167 81.8088 13.004 79.6554 13.004C77.5274 12.9787 75.3488 12.9787 73.1194 13.004C70.8901 13.004 68.7241 13.0547 66.6214 13.156C66.3428 13.3587 65.9881 13.6627 65.5574 14.068C65.1268 14.4733 64.6834 14.9167 64.2274 15.398C63.7714 15.8793 63.3154 16.386 62.8594 16.918C62.4288 17.45 62.0614 17.944 61.7574 18.4C61.4534 18.856 61.2381 19.2613 61.1114 19.616C61.0101 19.9453 61.0481 20.1733 61.2254 20.3C61.3774 20.4013 61.7321 20.2873 62.2894 19.958C62.8468 19.6287 63.4421 19.236 64.0754 18.78C64.7341 18.324 65.3548 17.8807 65.9374 17.45C66.5454 16.994 66.9634 16.7027 67.1914 16.576C67.6474 16.272 67.9768 16.2087 68.1794 16.386C68.3821 16.5633 68.3694 16.804 68.1414 17.108C68.0148 17.26 67.7108 17.5893 67.2294 18.096C66.7481 18.5773 66.1781 19.084 65.5194 19.616C64.8861 20.1227 64.2148 20.5787 63.5054 20.984C62.8214 21.3893 62.2261 21.592 61.7194 21.592C60.6808 21.592 60.0094 21.3133 59.7054 20.756C59.3761 20.1733 59.2748 19.464 59.4014 18.628C59.5281 17.7667 59.8321 16.8547 60.3134 15.892C60.7948 14.904 61.3394 14.0173 61.9474 13.232C60.7568 12.9787 60.3008 12.7 60.5794 12.396ZM73.6722 14.638C73.8242 14.486 74.0142 14.448 74.2422 14.524C74.4955 14.5747 74.7362 14.7013 74.9642 14.904C75.1922 15.0813 75.3949 15.3093 75.5722 15.588C75.7749 15.8413 75.9015 16.0693 75.9522 16.272C75.9775 16.4747 75.8889 16.7533 75.6862 17.108C75.4835 17.4627 75.2682 17.83 75.0402 18.21C74.8375 18.5647 74.6729 18.894 74.5462 19.198C74.4195 19.502 74.4449 19.692 74.6222 19.768C74.7995 19.8187 75.0909 19.6793 75.4962 19.35C75.9269 18.9953 76.3955 18.5647 76.9022 18.058C76.6742 17.7287 76.5855 17.374 76.6362 16.994C76.7122 16.5887 76.8515 16.234 77.0542 15.93C77.2822 15.6007 77.5482 15.322 77.8522 15.094C78.1562 14.866 78.4602 14.752 78.7642 14.752H78.8022C79.1315 14.752 79.3722 14.828 79.5242 14.98C79.7015 15.132 79.7902 15.3347 79.7902 15.588C79.8155 15.8413 79.7649 16.12 79.6382 16.424C79.5369 16.728 79.3975 17.032 79.2202 17.336C79.5749 17.564 80.0562 17.678 80.6642 17.678C81.2722 17.678 81.8549 17.412 82.4122 16.88C82.5389 16.7533 82.6782 16.6647 82.8302 16.614C82.9822 16.5633 83.0962 16.5507 83.1722 16.576C83.2735 16.576 83.3242 16.6267 83.3242 16.728C83.3495 16.8293 83.2862 16.9687 83.1342 17.146C82.7795 17.5513 82.3869 17.9187 81.9562 18.248C81.5509 18.552 81.1202 18.7927 80.6642 18.97C80.2082 19.1473 79.7395 19.2487 79.2582 19.274C78.8022 19.274 78.3462 19.16 77.8902 18.932C77.2315 19.5907 76.5602 20.1733 75.8762 20.68C75.1922 21.1867 74.5589 21.44 73.9762 21.44C73.8242 21.44 73.6342 21.3767 73.4062 21.25C73.2035 21.1233 72.9882 20.9713 72.7602 20.794C72.5575 20.5913 72.3675 20.376 72.1902 20.148C72.0382 19.8947 71.9369 19.6667 71.8862 19.464C71.8102 19.2613 71.7595 19.0587 71.7342 18.856C71.7342 18.6533 71.7342 18.4507 71.7342 18.248C71.4302 18.5267 71.1009 18.8433 70.7462 19.198C70.4169 19.5527 70.0749 19.882 69.7202 20.186C69.3909 20.49 69.0742 20.756 68.7702 20.984C68.4915 21.1867 68.2382 21.288 68.0102 21.288C67.8835 21.288 67.7062 21.25 67.4782 21.174C67.2502 21.0727 67.0222 20.946 66.7942 20.794C66.5409 20.642 66.3129 20.4773 66.1102 20.3C65.9075 20.0973 65.7935 19.882 65.7682 19.654C65.7429 19.426 65.8315 19.0587 66.0342 18.552C66.2369 18.0453 66.4902 17.5007 66.7942 16.918C67.0982 16.3353 67.4275 15.778 67.7822 15.246C68.1622 14.6887 68.5042 14.258 68.8082 13.954C68.9602 13.8273 69.1629 13.802 69.4162 13.878C69.6695 13.9287 69.9229 14.0427 70.1762 14.22C70.4295 14.372 70.6575 14.562 70.8602 14.79C71.0629 15.018 71.1895 15.2333 71.2402 15.436C71.2655 15.5627 71.2022 15.7527 71.0502 16.006C70.9235 16.2593 70.7462 16.538 70.5182 16.842C70.2902 17.146 70.0622 17.4627 69.8342 17.792C69.6062 18.096 69.4035 18.3747 69.2262 18.628C69.0489 18.856 68.9349 19.0333 68.8842 19.16C68.8589 19.2867 68.9349 19.312 69.1122 19.236C69.2642 19.16 69.4542 19.0333 69.6822 18.856C69.9355 18.6533 70.2015 18.4253 70.4802 18.172C70.7842 17.8933 71.0882 17.602 71.3922 17.298C71.7215 16.9687 72.0255 16.652 72.3042 16.348C72.4815 15.9933 72.6842 15.6893 72.9122 15.436C73.1402 15.1573 73.3935 14.8913 73.6722 14.638ZM86.029 13.992C86.3837 13.992 86.7004 14.0807 86.979 14.258C87.283 14.4353 87.4604 14.676 87.511 14.98C88.1697 15.132 88.6384 15.4487 88.917 15.93C89.1957 16.4113 89.3097 16.956 89.259 17.564C89.8924 17.64 90.5004 17.5387 91.083 17.26C91.691 16.9813 92.1597 16.6393 92.489 16.234C92.6917 16.006 92.869 15.854 93.021 15.778C93.1984 15.702 93.3377 15.6893 93.439 15.74C93.5404 15.7907 93.591 15.892 93.591 16.044C93.591 16.1707 93.5404 16.3227 93.439 16.5C93.0337 17.184 92.4384 17.8047 91.653 18.362C90.893 18.9193 89.8797 19.274 88.613 19.426C88.2837 19.9327 87.8657 20.3887 87.359 20.794C86.8777 21.1993 86.295 21.5033 85.611 21.706C85.307 21.8073 84.927 21.8073 84.471 21.706C84.0404 21.6047 83.6097 21.4147 83.179 21.136C82.7737 20.8573 82.4317 20.5027 82.153 20.072C81.8744 19.6413 81.773 19.16 81.849 18.628C81.8997 18.1213 82.0517 17.602 82.305 17.07C82.533 16.5127 82.8244 16.006 83.179 15.55C83.559 15.094 83.9897 14.7267 84.471 14.448C84.9524 14.144 85.4717 13.992 86.029 13.992ZM84.509 20.262C84.6357 20.4647 84.9017 20.4647 85.307 20.262C85.7124 20.0593 86.105 19.7427 86.485 19.312C86.2064 19.1093 85.9657 18.8433 85.763 18.514C85.5604 18.1593 85.421 17.754 85.345 17.298C84.9144 17.8807 84.6104 18.4633 84.433 19.046C84.2557 19.6033 84.281 20.0087 84.509 20.262ZM95.529 13.992C95.8837 13.992 96.2004 14.0807 96.479 14.258C96.783 14.4353 96.9604 14.676 97.011 14.98C97.6697 15.132 98.1384 15.4487 98.417 15.93C98.6957 16.4113 98.8097 16.956 98.759 17.564C99.3924 17.64 100 17.5387 100.583 17.26C101.191 16.9813 101.66 16.6393 101.989 16.234C102.192 16.006 102.369 15.854 102.521 15.778C102.698 15.702 102.838 15.6893 102.939 15.74C103.04 15.7907 103.091 15.892 103.091 16.044C103.091 16.1707 103.04 16.3227 102.939 16.5C102.534 17.184 101.938 17.8047 101.153 18.362C100.393 18.9193 99.3797 19.274 98.113 19.426C97.7837 19.9327 97.3657 20.3887 96.859 20.794C96.3777 21.1993 95.795 21.5033 95.111 21.706C94.807 21.8073 94.427 21.8073 93.971 21.706C93.5404 21.6047 93.1097 21.4147 92.679 21.136C92.2737 20.8573 91.9317 20.5027 91.653 20.072C91.3744 19.6413 91.273 19.16 91.349 18.628C91.3997 18.1213 91.5517 17.602 91.805 17.07C92.033 16.5127 92.3244 16.006 92.679 15.55C93.059 15.094 93.4897 14.7267 93.971 14.448C94.4524 14.144 94.9717 13.992 95.529 13.992ZM94.009 20.262C94.1357 20.4647 94.4017 20.4647 94.807 20.262C95.2124 20.0593 95.605 19.7427 95.985 19.312C95.7064 19.1093 95.4657 18.8433 95.263 18.514C95.0604 18.1593 94.921 17.754 94.845 17.298C94.4144 17.8807 94.1104 18.4633 93.933 19.046C93.7557 19.6033 93.781 20.0087 94.009 20.262ZM104.421 14.448C104.75 14.3973 105.118 14.41 105.523 14.486C105.954 14.5367 106.334 14.6633 106.663 14.866C107.296 13.498 108.069 11.9907 108.981 10.344C109.893 8.69733 110.83 7.152 111.793 5.708C112.781 4.23867 113.731 2.99733 114.643 1.984C115.555 0.970665 116.315 0.400665 116.923 0.273998C117.43 0.197999 117.898 0.223333 118.329 0.35C118.76 0.476666 119.127 0.653999 119.431 0.881999C119.76 1.11 120.014 1.36333 120.191 1.642C120.368 1.89533 120.482 2.11067 120.533 2.288C120.584 2.668 120.419 3.17467 120.039 3.808C119.684 4.416 119 5.30267 117.987 6.468C116.999 7.63333 115.644 9.14067 113.921 10.99C112.198 12.8393 110.032 15.1953 107.423 18.058C107.22 18.4887 107.182 18.7673 107.309 18.894C107.385 19.0207 107.638 19.008 108.069 18.856C108.5 18.704 108.981 18.4887 109.513 18.21C110.07 17.906 110.602 17.602 111.109 17.298C111.641 16.9687 112.021 16.69 112.249 16.462C112.502 16.234 112.692 16.12 112.819 16.12C112.946 16.12 113.022 16.1833 113.047 16.31C113.098 16.4113 113.085 16.5633 113.009 16.766C112.933 16.9433 112.806 17.1207 112.629 17.298C111.337 18.6153 110.324 19.578 109.589 20.186C108.88 20.794 108.36 21.136 108.031 21.212C107.6 21.288 107.208 21.1487 106.853 20.794C106.498 20.4393 106.194 20.0213 105.941 19.54C105.485 20.0467 105.029 20.49 104.573 20.87C104.142 21.2247 103.813 21.4273 103.585 21.478C103.306 21.5287 102.99 21.5287 102.635 21.478C102.306 21.402 101.976 21.2753 101.647 21.098C101.343 20.9207 101.064 20.6927 100.811 20.414C100.558 20.11 100.393 19.768 100.317 19.388C100.216 18.932 100.33 18.4253 100.659 17.868C100.963 17.3107 101.343 16.7913 101.799 16.31C102.28 15.8033 102.762 15.3853 103.243 15.056C103.75 14.7013 104.142 14.4987 104.421 14.448ZM118.747 2.364C118.62 2.288 118.38 2.41467 118.025 2.744C117.696 3.048 117.278 3.49133 116.771 4.074C116.29 4.63133 115.745 5.31533 115.137 6.126C114.529 6.91133 113.908 7.74733 113.275 8.634C112.642 9.52067 112.008 10.4327 111.375 11.37C110.767 12.282 110.197 13.156 109.665 13.992C110.349 13.232 111.058 12.434 111.793 11.598C112.553 10.762 113.288 9.93867 113.997 9.128C114.706 8.292 115.378 7.494 116.011 6.734C116.644 5.94867 117.176 5.252 117.607 4.644C118.063 4.036 118.392 3.52933 118.595 3.124C118.823 2.71867 118.874 2.46533 118.747 2.364ZM103.091 20.262C103.218 20.3887 103.484 20.3127 103.889 20.034C104.294 19.7553 104.826 19.1727 105.485 18.286C105.485 17.9567 105.536 17.6273 105.637 17.298C105.738 16.9687 105.89 16.576 106.093 16.12C105.789 16.196 105.434 16.4367 105.029 16.842C104.624 17.222 104.256 17.6527 103.927 18.134C103.598 18.59 103.344 19.0333 103.167 19.464C102.99 19.8947 102.964 20.1607 103.091 20.262ZM155.018 1.908C156.132 2.212 157.006 2.61733 157.64 3.124C158.273 3.63067 158.64 4.16267 158.742 4.72C158.868 5.27733 158.716 5.822 158.286 6.354C157.88 6.86067 157.196 7.27867 156.234 7.608C155.626 7.836 155.056 7.89933 154.524 7.798C154.017 7.69667 153.586 7.54467 153.232 7.342C152.902 7.114 152.662 6.886 152.51 6.658C152.383 6.43 152.396 6.29067 152.548 6.24C152.877 6.164 153.32 6.05 153.878 5.898C154.46 5.72067 154.967 5.49267 155.398 5.214C156.259 4.63133 156.601 4.12467 156.424 3.694C156.272 3.26333 155.664 2.95933 154.6 2.782C153.536 2.57933 152.054 2.516 150.154 2.592C148.279 2.668 146.075 2.92133 143.542 3.352C141.946 3.60533 140.312 3.94733 138.64 4.378C136.968 4.78333 135.321 5.29 133.7 5.898C132.078 6.506 130.508 7.228 128.988 8.064C127.493 8.87467 126.112 9.812 124.846 10.876C123.63 11.864 122.832 12.776 122.452 13.612C122.097 14.4227 122.097 15.0433 122.452 15.474C122.578 15.626 122.553 15.7147 122.376 15.74C122.224 15.7653 122.008 15.7273 121.73 15.626C121.476 15.5247 121.21 15.36 120.932 15.132C120.653 14.8787 120.463 14.562 120.362 14.182C120.058 13.2193 120.096 12.2947 120.476 11.408C120.856 10.5213 121.438 9.698 122.224 8.938C123.034 8.15267 123.972 7.418 125.036 6.734C126.125 6.05 127.227 5.42933 128.342 4.872C130.267 3.884 132.37 3.07333 134.65 2.44C136.93 1.80667 139.248 1.36333 141.604 1.11C143.96 0.856666 146.29 0.793332 148.596 0.919999C150.901 1.04667 153.042 1.376 155.018 1.908ZM130.166 25.278C130.343 24.214 130.634 23.0613 131.04 21.82C131.445 20.5787 131.914 19.3247 132.446 18.058C133.003 16.766 133.598 15.4993 134.232 14.258C134.865 12.9913 135.524 11.8387 136.208 10.8C136.892 9.736 137.563 8.81133 138.222 8.026C138.906 7.21533 139.539 6.62 140.122 6.24C140.476 6.012 140.869 5.86 141.3 5.784C141.73 5.68267 142.123 5.64467 142.478 5.67C142.858 5.67 143.162 5.708 143.39 5.784C143.618 5.83467 143.694 5.898 143.618 5.974C143.035 6.582 142.351 7.38 141.566 8.368C140.806 9.33067 140.02 10.42 139.21 11.636C138.399 12.8267 137.588 14.106 136.778 15.474C135.967 16.842 135.232 18.248 134.574 19.692C133.915 21.1107 133.345 22.5293 132.864 23.948C132.382 25.3667 132.066 26.722 131.914 28.014C131.863 28.318 131.724 28.47 131.496 28.47C131.268 28.47 131.04 28.3307 130.812 28.052C130.584 27.7987 130.381 27.4313 130.204 26.95C130.052 26.494 130.039 25.9367 130.166 25.278ZM153.077 16.614C153.432 16.2847 153.711 16.2087 153.913 16.386C154.141 16.538 154.078 16.8293 153.723 17.26C153.521 17.488 153.242 17.83 152.887 18.286C152.533 18.7167 152.165 19.16 151.785 19.616C151.405 20.072 151.025 20.4773 150.645 20.832C150.265 21.1867 149.949 21.3893 149.695 21.44C149.366 21.516 148.897 21.4653 148.289 21.288C147.707 21.1107 147.2 20.8447 146.769 20.49C146.44 20.718 146.123 20.946 145.819 21.174C145.515 21.3767 145.211 21.5287 144.907 21.63C144.629 21.6807 144.287 21.668 143.881 21.592C143.476 21.516 143.071 21.3767 142.665 21.174C142.285 20.946 141.943 20.68 141.639 20.376C141.335 20.072 141.133 19.7173 141.031 19.312C140.93 18.8813 141.044 18.3747 141.373 17.792C141.677 17.184 142.057 16.614 142.513 16.082C142.969 15.55 143.438 15.094 143.919 14.714C144.426 14.3087 144.819 14.0933 145.097 14.068C145.275 14.0427 145.49 14.0553 145.743 14.106C146.022 14.1567 146.288 14.2453 146.541 14.372C146.82 14.4987 147.061 14.6507 147.263 14.828C147.491 15.0053 147.643 15.208 147.719 15.436C148.074 15.132 148.378 14.9927 148.631 15.018C148.834 15.0687 149.049 15.132 149.277 15.208C149.505 15.284 149.708 15.3727 149.885 15.474C150.088 15.5753 150.253 15.702 150.379 15.854C150.506 16.006 150.557 16.1707 150.531 16.348C150.531 16.5507 150.43 16.8293 150.227 17.184C150.025 17.5133 149.809 17.8553 149.581 18.21C149.353 18.5647 149.163 18.8813 149.011 19.16C148.859 19.4387 148.834 19.616 148.935 19.692C149.011 19.7427 149.176 19.692 149.429 19.54C149.708 19.3627 150.037 19.1347 150.417 18.856C150.797 18.552 151.215 18.21 151.671 17.83C152.153 17.45 152.621 17.0447 153.077 16.614ZM143.539 20.262C143.818 20.414 144.16 20.338 144.565 20.034C144.996 19.7047 145.401 19.2993 145.781 18.818C146.161 18.3367 146.478 17.8427 146.731 17.336C147.01 16.8293 147.149 16.4493 147.149 16.196C147.048 15.968 146.871 15.9047 146.617 16.006C146.364 16.1073 146.085 16.2973 145.781 16.576C145.477 16.8547 145.161 17.1967 144.831 17.602C144.527 18.0073 144.261 18.4 144.033 18.78C143.805 19.1347 143.628 19.464 143.501 19.768C143.4 20.0467 143.413 20.2113 143.539 20.262ZM164.824 13.004C163.937 13.0293 163.05 13.0547 162.164 13.08C161.302 13.08 160.454 13.1053 159.618 13.156C159.339 13.3587 158.984 13.6627 158.554 14.068C158.123 14.4733 157.68 14.9167 157.224 15.398C156.768 15.8793 156.312 16.386 155.856 16.918C155.425 17.45 155.058 17.944 154.754 18.4C154.45 18.856 154.234 19.2613 154.108 19.616C154.006 19.9453 154.044 20.1733 154.222 20.3C154.374 20.4013 154.728 20.2873 155.286 19.958C155.843 19.6287 156.438 19.236 157.072 18.78C157.73 18.324 158.351 17.8807 158.934 17.45C159.542 16.994 159.96 16.7027 160.188 16.576C160.644 16.272 160.973 16.2087 161.176 16.386C161.378 16.5633 161.366 16.804 161.138 17.108C161.011 17.26 160.707 17.5893 160.226 18.096C159.744 18.5773 159.174 19.084 158.516 19.616C157.882 20.1227 157.211 20.5787 156.502 20.984C155.818 21.3893 155.222 21.592 154.716 21.592C153.677 21.592 153.006 21.3133 152.702 20.756C152.372 20.1733 152.271 19.464 152.398 18.628C152.524 17.7667 152.828 16.8547 153.31 15.892C153.791 14.904 154.336 14.0173 154.944 13.232C153.753 12.9787 153.297 12.7 153.576 12.396C153.702 12.2693 154.5 12.1807 155.97 12.13C156.375 11.7753 156.755 11.484 157.11 11.256C157.464 11.028 157.806 10.914 158.136 10.914C158.44 10.914 158.769 11.0407 159.124 11.294C159.478 11.522 159.757 11.788 159.96 12.092C160.694 12.092 161.467 12.092 162.278 12.092C163.088 12.092 163.924 12.0793 164.786 12.054L164.824 13.004ZM163.038 12.13C163.443 11.7753 163.823 11.484 164.178 11.256C164.532 11.028 164.874 10.914 165.204 10.914C165.508 10.914 165.837 11.0407 166.192 11.294C166.546 11.522 166.825 11.788 167.028 12.092C168.32 12.092 169.7 12.0793 171.17 12.054C172.639 12.0287 174.134 11.9907 175.654 11.94C177.579 11.8893 179.34 11.8133 180.936 11.712C182.532 11.6107 183.925 11.5093 185.116 11.408C186.332 11.3067 187.307 11.218 188.042 11.142C188.802 11.066 189.296 11.028 189.524 11.028C189.954 11.028 190.423 11.104 190.93 11.256C191.462 11.3827 191.943 11.5473 192.374 11.75C192.804 11.9273 193.134 12.13 193.362 12.358C193.615 12.5607 193.666 12.7507 193.514 12.928C193.438 13.0293 193.007 13.0927 192.222 13.118C191.436 13.118 190.398 13.118 189.106 13.118C187.839 13.0927 186.344 13.0673 184.622 13.042C182.924 13.0167 181.088 13.004 179.112 13.004C177.161 12.9787 175.122 12.9787 172.994 13.004C170.891 13.004 168.788 13.0547 166.686 13.156C166.407 13.3587 166.052 13.6627 165.622 14.068C165.191 14.4733 164.748 14.9167 164.292 15.398C163.836 15.8793 163.38 16.386 162.924 16.918C162.493 17.45 162.126 17.944 161.822 18.4C161.518 18.856 161.302 19.2613 161.176 19.616C161.074 19.9453 161.112 20.1733 161.29 20.3C161.442 20.4013 161.796 20.2873 162.354 19.958C162.911 19.6287 163.506 19.236 164.14 18.78C164.798 18.324 165.419 17.8807 166.002 17.45C166.61 16.994 167.028 16.7027 167.256 16.576C167.712 16.272 168.041 16.2087 168.244 16.386C168.446 16.5633 168.434 16.804 168.206 17.108C168.079 17.26 167.775 17.5893 167.294 18.096C166.812 18.5773 166.242 19.084 165.584 19.616C164.95 20.1227 164.279 20.5787 163.57 20.984C162.886 21.3893 162.29 21.592 161.784 21.592C160.745 21.592 160.061 21.3133 159.732 20.756C159.428 20.1733 159.339 19.464 159.466 18.628C159.592 17.7667 159.896 16.8547 160.378 15.892C160.859 14.904 161.404 14.0173 162.012 13.232L163.038 12.13ZM170.564 13.992C170.919 13.992 171.236 14.0807 171.514 14.258C171.818 14.4353 171.996 14.676 172.046 14.98C172.705 15.132 173.174 15.4487 173.452 15.93C173.731 16.4113 173.845 16.956 173.794 17.564C174.428 17.64 175.036 17.5387 175.618 17.26C176.226 16.9813 176.695 16.6393 177.024 16.234C177.227 16.006 177.404 15.854 177.556 15.778C177.734 15.702 177.873 15.6893 177.974 15.74C178.076 15.7907 178.126 15.892 178.126 16.044C178.126 16.1707 178.076 16.3227 177.974 16.5C177.569 17.184 176.974 17.8047 176.188 18.362C175.428 18.9193 174.415 19.274 173.148 19.426C172.819 19.9327 172.401 20.3887 171.894 20.794C171.413 21.1993 170.83 21.5033 170.146 21.706C169.842 21.8073 169.462 21.8073 169.006 21.706C168.576 21.6047 168.145 21.4147 167.714 21.136C167.309 20.8573 166.967 20.5027 166.688 20.072C166.41 19.6413 166.308 19.16 166.384 18.628C166.435 18.1213 166.587 17.602 166.84 17.07C167.068 16.5127 167.36 16.006 167.714 15.55C168.094 15.094 168.525 14.7267 169.006 14.448C169.488 14.144 170.007 13.992 170.564 13.992ZM169.044 20.262C169.171 20.4647 169.437 20.4647 169.842 20.262C170.248 20.0593 170.64 19.7427 171.02 19.312C170.742 19.1093 170.501 18.8433 170.298 18.514C170.096 18.1593 169.956 17.754 169.88 17.298C169.45 17.8807 169.146 18.4633 168.968 19.046C168.791 19.6033 168.816 20.0087 169.044 20.262ZM180.064 13.992C180.419 13.992 180.736 14.0807 181.014 14.258C181.318 14.4353 181.496 14.676 181.546 14.98C182.205 15.132 182.674 15.4487 182.952 15.93C183.231 16.4113 183.345 16.956 183.294 17.564C183.928 17.64 184.536 17.5387 185.118 17.26C185.726 16.9813 186.195 16.6393 186.524 16.234C186.727 16.006 186.904 15.854 187.056 15.778C187.234 15.702 187.373 15.6893 187.474 15.74C187.576 15.7907 187.626 15.892 187.626 16.044C187.626 16.1707 187.576 16.3227 187.474 16.5C187.069 17.184 186.474 17.8047 185.688 18.362C184.928 18.9193 183.915 19.274 182.648 19.426C182.319 19.9327 181.901 20.3887 181.394 20.794C180.913 21.1993 180.33 21.5033 179.646 21.706C179.342 21.8073 178.962 21.8073 178.506 21.706C178.076 21.6047 177.645 21.4147 177.214 21.136C176.809 20.8573 176.467 20.5027 176.188 20.072C175.91 19.6413 175.808 19.16 175.884 18.628C175.935 18.1213 176.087 17.602 176.34 17.07C176.568 16.5127 176.86 16.006 177.214 15.55C177.594 15.094 178.025 14.7267 178.506 14.448C178.988 14.144 179.507 13.992 180.064 13.992ZM178.544 20.262C178.671 20.4647 178.937 20.4647 179.342 20.262C179.748 20.0593 180.14 19.7427 180.52 19.312C180.242 19.1093 180.001 18.8433 179.798 18.514C179.596 18.1593 179.456 17.754 179.38 17.298C178.95 17.8807 178.646 18.4633 178.468 19.046C178.291 19.6033 178.316 20.0087 178.544 20.262Z" fill="white"/>
</svg>
